<svg id="wave" style="transform:rotate(0deg); transition: 0.3s" viewBox="0 0 1440 350" version="1.1" xmlns="http://www.w3.org/2000/svg"><defs><linearGradient id="sw-gradient-0" x1="0" x2="0" y1="1" y2="0"><stop stop-color="rgba(187.066, 187.066, 187.066, 1)" offset="0%"></stop><stop stop-color="rgba(225.772, 225.772, 225.772, 1)" offset="100%"></stop></linearGradient></defs><path style="transform:translate(0, 0px); opacity:1" fill="url(#sw-gradient-0)" d="M0,280L26.7,285.8C53.3,292,107,303,160,274.2C213.3,245,267,175,320,122.5C373.3,70,427,35,480,52.5C533.3,70,587,140,640,163.3C693.3,187,747,163,800,151.7C853.3,140,907,140,960,145.8C1013.3,152,1067,163,1120,192.5C1173.3,222,1227,268,1280,239.2C1333.3,210,1387,105,1440,81.7C1493.3,58,1547,117,1600,163.3C1653.3,210,1707,245,1760,221.7C1813.3,198,1867,117,1920,105C1973.3,93,2027,152,2080,198.3C2133.3,245,2187,280,2240,291.7C2293.3,303,2347,292,2400,280C2453.3,268,2507,257,2560,245C2613.3,233,2667,222,2720,215.8C2773.3,210,2827,210,2880,186.7C2933.3,163,2987,117,3040,99.2C3093.3,82,3147,93,3200,81.7C3253.3,70,3307,35,3360,70C3413.3,105,3467,210,3520,215.8C3573.3,222,3627,128,3680,75.8C3733.3,23,3787,12,3813,5.8L3840,0L3840,350L3813.3,350C3786.7,350,3733,350,3680,350C3626.7,350,3573,350,3520,350C3466.7,350,3413,350,3360,350C3306.7,350,3253,350,3200,350C3146.7,350,3093,350,3040,350C2986.7,350,2933,350,2880,350C2826.7,350,2773,350,2720,350C2666.7,350,2613,350,2560,350C2506.7,350,2453,350,2400,350C2346.7,350,2293,350,2240,350C2186.7,350,2133,350,2080,350C2026.7,350,1973,350,1920,350C1866.7,350,1813,350,1760,350C1706.7,350,1653,350,1600,350C1546.7,350,1493,350,1440,350C1386.7,350,1333,350,1280,350C1226.7,350,1173,350,1120,350C1066.7,350,1013,350,960,350C906.7,350,853,350,800,350C746.7,350,693,350,640,350C586.7,350,533,350,480,350C426.7,350,373,350,320,350C266.7,350,213,350,160,350C106.7,350,53,350,27,350L0,350Z"></path><defs><linearGradient id="sw-gradient-1" x1="0" x2="0" y1="1" y2="0"><stop stop-color="rgba(255, 185.311, 0, 1)" offset="0%"></stop><stop stop-color="rgba(255, 229.649, 11, 1)" offset="100%"></stop></linearGradient></defs><path style="transform:translate(0, 50px); opacity:0.9" fill="url(#sw-gradient-1)" d="M0,245L26.7,245C53.3,245,107,245,160,204.2C213.3,163,267,82,320,75.8C373.3,70,427,140,480,140C533.3,140,587,70,640,52.5C693.3,35,747,70,800,93.3C853.3,117,907,128,960,145.8C1013.3,163,1067,187,1120,180.8C1173.3,175,1227,140,1280,110.8C1333.3,82,1387,58,1440,58.3C1493.3,58,1547,82,1600,116.7C1653.3,152,1707,198,1760,180.8C1813.3,163,1867,82,1920,52.5C1973.3,23,2027,47,2080,52.5C2133.3,58,2187,47,2240,46.7C2293.3,47,2347,58,2400,81.7C2453.3,105,2507,140,2560,151.7C2613.3,163,2667,152,2720,175C2773.3,198,2827,257,2880,268.3C2933.3,280,2987,245,3040,198.3C3093.3,152,3147,93,3200,105C3253.3,117,3307,198,3360,210C3413.3,222,3467,163,3520,128.3C3573.3,93,3627,82,3680,70C3733.3,58,3787,47,3813,40.8L3840,35L3840,350L3813.3,350C3786.7,350,3733,350,3680,350C3626.7,350,3573,350,3520,350C3466.7,350,3413,350,3360,350C3306.7,350,3253,350,3200,350C3146.7,350,3093,350,3040,350C2986.7,350,2933,350,2880,350C2826.7,350,2773,350,2720,350C2666.7,350,2613,350,2560,350C2506.7,350,2453,350,2400,350C2346.7,350,2293,350,2240,350C2186.7,350,2133,350,2080,350C2026.7,350,1973,350,1920,350C1866.7,350,1813,350,1760,350C1706.7,350,1653,350,1600,350C1546.7,350,1493,350,1440,350C1386.7,350,1333,350,1280,350C1226.7,350,1173,350,1120,350C1066.7,350,1013,350,960,350C906.7,350,853,350,800,350C746.7,350,693,350,640,350C586.7,350,533,350,480,350C426.7,350,373,350,320,350C266.7,350,213,350,160,350C106.7,350,53,350,27,350L0,350Z"></path><defs><linearGradient id="sw-gradient-2" x1="0" x2="0" y1="1" y2="0"><stop stop-color="rgba(201, 28, 88, 1)" offset="0%"></stop><stop stop-color="rgba(255, 19.654, 192.277, 1)" offset="100%"></stop></linearGradient></defs><path style="transform:translate(0, 100px); opacity:0.8" fill="url(#sw-gradient-2)" d="M0,105L26.7,87.5C53.3,70,107,35,160,29.2C213.3,23,267,47,320,70C373.3,93,427,117,480,145.8C533.3,175,587,210,640,198.3C693.3,187,747,128,800,122.5C853.3,117,907,163,960,186.7C1013.3,210,1067,210,1120,180.8C1173.3,152,1227,93,1280,87.5C1333.3,82,1387,128,1440,163.3C1493.3,198,1547,222,1600,192.5C1653.3,163,1707,82,1760,75.8C1813.3,70,1867,140,1920,140C1973.3,140,2027,70,2080,81.7C2133.3,93,2187,187,2240,215.8C2293.3,245,2347,210,2400,175C2453.3,140,2507,105,2560,128.3C2613.3,152,2667,233,2720,221.7C2773.3,210,2827,105,2880,81.7C2933.3,58,2987,117,3040,134.2C3093.3,152,3147,128,3200,105C3253.3,82,3307,58,3360,70C3413.3,82,3467,128,3520,140C3573.3,152,3627,128,3680,110.8C3733.3,93,3787,82,3813,75.8L3840,70L3840,350L3813.3,350C3786.7,350,3733,350,3680,350C3626.7,350,3573,350,3520,350C3466.7,350,3413,350,3360,350C3306.7,350,3253,350,3200,350C3146.7,350,3093,350,3040,350C2986.7,350,2933,350,2880,350C2826.7,350,2773,350,2720,350C2666.7,350,2613,350,2560,350C2506.7,350,2453,350,2400,350C2346.7,350,2293,350,2240,350C2186.7,350,2133,350,2080,350C2026.7,350,1973,350,1920,350C1866.7,350,1813,350,1760,350C1706.7,350,1653,350,1600,350C1546.7,350,1493,350,1440,350C1386.7,350,1333,350,1280,350C1226.7,350,1173,350,1120,350C1066.7,350,1013,350,960,350C906.7,350,853,350,800,350C746.7,350,693,350,640,350C586.7,350,533,350,480,350C426.7,350,373,350,320,350C266.7,350,213,350,160,350C106.7,350,53,350,27,350L0,350Z"></path><defs><linearGradient id="sw-gradient-3" x1="0" x2="0" y1="1" y2="0"><stop stop-color="rgba(2.21, 150.395, 237.156, 1)" offset="0%"></stop><stop stop-color="rgba(0, 229.947, 255, 1)" offset="100%"></stop></linearGradient></defs><path style="transform:translate(0, 150px); opacity:0.7" fill="url(#sw-gradient-3)" d="M0,245L26.7,250.8C53.3,257,107,268,160,256.7C213.3,245,267,210,320,198.3C373.3,187,427,198,480,180.8C533.3,163,587,117,640,110.8C693.3,105,747,140,800,140C853.3,140,907,105,960,122.5C1013.3,140,1067,210,1120,204.2C1173.3,198,1227,117,1280,81.7C1333.3,47,1387,58,1440,75.8C1493.3,93,1547,117,1600,128.3C1653.3,140,1707,140,1760,122.5C1813.3,105,1867,70,1920,99.2C1973.3,128,2027,222,2080,268.3C2133.3,315,2187,315,2240,268.3C2293.3,222,2347,128,2400,87.5C2453.3,47,2507,58,2560,70C2613.3,82,2667,93,2720,105C2773.3,117,2827,128,2880,128.3C2933.3,128,2987,117,3040,145.8C3093.3,175,3147,245,3200,250.8C3253.3,257,3307,198,3360,186.7C3413.3,175,3467,210,3520,221.7C3573.3,233,3627,222,3680,192.5C3733.3,163,3787,117,3813,93.3L3840,70L3840,350L3813.3,350C3786.7,350,3733,350,3680,350C3626.7,350,3573,350,3520,350C3466.7,350,3413,350,3360,350C3306.7,350,3253,350,3200,350C3146.7,350,3093,350,3040,350C2986.7,350,2933,350,2880,350C2826.7,350,2773,350,2720,350C2666.7,350,2613,350,2560,350C2506.7,350,2453,350,2400,350C2346.7,350,2293,350,2240,350C2186.7,350,2133,350,2080,350C2026.7,350,1973,350,1920,350C1866.7,350,1813,350,1760,350C1706.7,350,1653,350,1600,350C1546.7,350,1493,350,1440,350C1386.7,350,1333,350,1280,350C1226.7,350,1173,350,1120,350C1066.7,350,1013,350,960,350C906.7,350,853,350,800,350C746.7,350,693,350,640,350C586.7,350,533,350,480,350C426.7,350,373,350,320,350C266.7,350,213,350,160,350C106.7,350,53,350,27,350L0,350Z"></path></svg>