<svg id="wave" style="transform:rotate(180deg); transition: 0.3s" viewBox="0 0 1440 300" version="1.1" xmlns="http://www.w3.org/2000/svg"><defs><linearGradient id="sw-gradient-0" x1="0" x2="0" y1="1" y2="0"><stop stop-color="rgba(225.838, 230.044, 230.325, 1)" offset="0%"></stop><stop stop-color="rgba(228, 228, 228, 0.95)" offset="100%"></stop></linearGradient></defs><path style="transform:translate(0, 0px); opacity:1" fill="url(#sw-gradient-0)" d="M0,210L24,175C48,140,96,70,144,40C192,10,240,20,288,35C336,50,384,70,432,70C480,70,528,50,576,60C624,70,672,110,720,115C768,120,816,90,864,75C912,60,960,60,1008,55C1056,50,1104,40,1152,35C1200,30,1248,30,1296,35C1344,40,1392,50,1440,70C1488,90,1536,120,1584,135C1632,150,1680,150,1728,155C1776,160,1824,170,1872,180C1920,190,1968,200,2016,175C2064,150,2112,90,2160,65C2208,40,2256,50,2304,75C2352,100,2400,140,2448,155C2496,170,2544,160,2592,135C2640,110,2688,70,2736,70C2784,70,2832,110,2880,150C2928,190,2976,230,3024,230C3072,230,3120,190,3168,150C3216,110,3264,70,3312,85C3360,100,3408,170,3432,205L3456,240L3456,300L3432,300C3408,300,3360,300,3312,300C3264,300,3216,300,3168,300C3120,300,3072,300,3024,300C2976,300,2928,300,2880,300C2832,300,2784,300,2736,300C2688,300,2640,300,2592,300C2544,300,2496,300,2448,300C2400,300,2352,300,2304,300C2256,300,2208,300,2160,300C2112,300,2064,300,2016,300C1968,300,1920,300,1872,300C1824,300,1776,300,1728,300C1680,300,1632,300,1584,300C1536,300,1488,300,1440,300C1392,300,1344,300,1296,300C1248,300,1200,300,1152,300C1104,300,1056,300,1008,300C960,300,912,300,864,300C816,300,768,300,720,300C672,300,624,300,576,300C528,300,480,300,432,300C384,300,336,300,288,300C240,300,192,300,144,300C96,300,48,300,24,300L0,300Z"></path><defs><linearGradient id="sw-gradient-1" x1="0" x2="0" y1="1" y2="0"><stop stop-color="rgba(255, 107.558, 0, 1)" offset="0%"></stop><stop stop-color="rgba(255, 219.867, 0, 1)" offset="100%"></stop></linearGradient></defs><path style="transform:translate(0, 50px); opacity:0.9" fill="url(#sw-gradient-1)" d="M0,0L24,5C48,10,96,20,144,20C192,20,240,10,288,20C336,30,384,60,432,95C480,130,528,170,576,180C624,190,672,170,720,170C768,170,816,190,864,165C912,140,960,70,1008,65C1056,60,1104,120,1152,135C1200,150,1248,120,1296,105C1344,90,1392,90,1440,120C1488,150,1536,210,1584,230C1632,250,1680,230,1728,220C1776,210,1824,210,1872,175C1920,140,1968,70,2016,40C2064,10,2112,20,2160,55C2208,90,2256,150,2304,175C2352,200,2400,190,2448,200C2496,210,2544,240,2592,215C2640,190,2688,110,2736,90C2784,70,2832,110,2880,125C2928,140,2976,130,3024,150C3072,170,3120,220,3168,235C3216,250,3264,230,3312,210C3360,190,3408,170,3432,160L3456,150L3456,300L3432,300C3408,300,3360,300,3312,300C3264,300,3216,300,3168,300C3120,300,3072,300,3024,300C2976,300,2928,300,2880,300C2832,300,2784,300,2736,300C2688,300,2640,300,2592,300C2544,300,2496,300,2448,300C2400,300,2352,300,2304,300C2256,300,2208,300,2160,300C2112,300,2064,300,2016,300C1968,300,1920,300,1872,300C1824,300,1776,300,1728,300C1680,300,1632,300,1584,300C1536,300,1488,300,1440,300C1392,300,1344,300,1296,300C1248,300,1200,300,1152,300C1104,300,1056,300,1008,300C960,300,912,300,864,300C816,300,768,300,720,300C672,300,624,300,576,300C528,300,480,300,432,300C384,300,336,300,288,300C240,300,192,300,144,300C96,300,48,300,24,300L0,300Z"></path><defs><linearGradient id="sw-gradient-2" x1="0" x2="0" y1="1" y2="0"><stop stop-color="rgba(130, 0, 77.736, 1)" offset="0%"></stop><stop stop-color="rgba(255, 0, 135, 1)" offset="100%"></stop></linearGradient></defs><path style="transform:translate(0, 100px); opacity:0.8" fill="url(#sw-gradient-2)" d="M0,240L24,245C48,250,96,260,144,235C192,210,240,150,288,145C336,140,384,190,432,175C480,160,528,80,576,55C624,30,672,60,720,60C768,60,816,30,864,60C912,90,960,180,1008,210C1056,240,1104,210,1152,170C1200,130,1248,80,1296,60C1344,40,1392,50,1440,75C1488,100,1536,140,1584,130C1632,120,1680,60,1728,55C1776,50,1824,100,1872,105C1920,110,1968,70,2016,55C2064,40,2112,50,2160,60C2208,70,2256,80,2304,95C2352,110,2400,130,2448,150C2496,170,2544,190,2592,205C2640,220,2688,230,2736,235C2784,240,2832,240,2880,205C2928,170,2976,100,3024,60C3072,20,3120,10,3168,40C3216,70,3264,140,3312,170C3360,200,3408,190,3432,185L3456,180L3456,300L3432,300C3408,300,3360,300,3312,300C3264,300,3216,300,3168,300C3120,300,3072,300,3024,300C2976,300,2928,300,2880,300C2832,300,2784,300,2736,300C2688,300,2640,300,2592,300C2544,300,2496,300,2448,300C2400,300,2352,300,2304,300C2256,300,2208,300,2160,300C2112,300,2064,300,2016,300C1968,300,1920,300,1872,300C1824,300,1776,300,1728,300C1680,300,1632,300,1584,300C1536,300,1488,300,1440,300C1392,300,1344,300,1296,300C1248,300,1200,300,1152,300C1104,300,1056,300,1008,300C960,300,912,300,864,300C816,300,768,300,720,300C672,300,624,300,576,300C528,300,480,300,432,300C384,300,336,300,288,300C240,300,192,300,144,300C96,300,48,300,24,300L0,300Z"></path><defs><linearGradient id="sw-gradient-3" x1="0" x2="0" y1="1" y2="0"><stop stop-color="rgba(14.535, 227.161, 241.709, 1)" offset="0%"></stop><stop stop-color="rgba(0, 239, 255, 1)" offset="100%"></stop></linearGradient></defs><path style="transform:translate(0, 150px); opacity:0.7" fill="url(#sw-gradient-3)" d="M0,120L24,110C48,100,96,80,144,75C192,70,240,80,288,75C336,70,384,50,432,65C480,80,528,130,576,155C624,180,672,180,720,150C768,120,816,60,864,35C912,10,960,20,1008,25C1056,30,1104,30,1152,35C1200,40,1248,50,1296,80C1344,110,1392,160,1440,150C1488,140,1536,70,1584,50C1632,30,1680,60,1728,65C1776,70,1824,50,1872,80C1920,110,1968,190,2016,220C2064,250,2112,230,2160,205C2208,180,2256,150,2304,115C2352,80,2400,40,2448,20C2496,0,2544,0,2592,40C2640,80,2688,160,2736,185C2784,210,2832,180,2880,165C2928,150,2976,150,3024,145C3072,140,3120,130,3168,145C3216,160,3264,200,3312,220C3360,240,3408,240,3432,240L3456,240L3456,300L3432,300C3408,300,3360,300,3312,300C3264,300,3216,300,3168,300C3120,300,3072,300,3024,300C2976,300,2928,300,2880,300C2832,300,2784,300,2736,300C2688,300,2640,300,2592,300C2544,300,2496,300,2448,300C2400,300,2352,300,2304,300C2256,300,2208,300,2160,300C2112,300,2064,300,2016,300C1968,300,1920,300,1872,300C1824,300,1776,300,1728,300C1680,300,1632,300,1584,300C1536,300,1488,300,1440,300C1392,300,1344,300,1296,300C1248,300,1200,300,1152,300C1104,300,1056,300,1008,300C960,300,912,300,864,300C816,300,768,300,720,300C672,300,624,300,576,300C528,300,480,300,432,300C384,300,336,300,288,300C240,300,192,300,144,300C96,300,48,300,24,300L0,300Z"></path></svg>